<svg viewBox="0 0 532 147" height="147" width="532" xmlns="http://www.w3.org/2000/svg">
    <g>
        <path d="m81.057 117.665 10.49 9.699c-4.486 5.806-10.16 10.424-17.022 13.855-6.729 3.298-14.383 4.948-22.959 4.948-9.896 0-18.737-2.243-26.522-6.73-7.653-4.486-13.723-10.622-18.209-18.407C2.481 113.245.303 104.338.303 94.31c0-10.028 2.177-18.935 6.532-26.72 4.486-7.785 10.622-13.921 18.407-18.407 7.785-4.486 16.626-6.729 26.522-6.729 8.577 0 16.23 1.715 22.959 5.146 6.729 3.299 12.338 7.851 16.824 13.657l-10.49 9.698c-3.167-4.75-7.125-8.511-11.876-11.282-4.75-2.903-10.556-4.354-17.418-4.354-7.125 0-13.393 1.649-18.803 4.948-5.41 3.299-9.632 7.917-12.667 13.855-3.035 5.806-4.552 12.535-4.552 20.188 0 7.653 1.518 14.449 4.552 20.386 3.035 5.806 7.257 10.359 12.667 13.657 5.41 3.299 11.678 4.949 18.803 4.949 6.861 0 12.667-1.386 17.418-4.157 4.75-2.903 8.709-6.729 11.876-11.48z" fill="#495CEF" />
        <path d="M149.815 146.167c-9.897 0-18.737-2.243-26.523-6.73-7.785-4.486-13.92-10.622-18.407-18.407-4.354-7.785-6.531-16.692-6.531-26.72 0-10.028 2.177-18.935 6.531-26.72 4.487-7.785 10.622-13.921 18.407-18.407 7.786-4.486 16.626-6.729 26.523-6.729 10.028 0 18.869 2.243 26.522 6.729 7.785 4.486 13.855 10.622 18.209 18.407 4.486 7.785 6.73 16.692 6.73 26.72 0 10.028-2.244 18.935-6.73 26.72-4.354 7.785-10.424 13.921-18.209 18.407-7.653 4.487-16.494 6.73-26.522 6.73zm0-12.865c7.125 0 13.393-1.65 18.803-4.949 5.41-3.298 9.632-7.851 12.667-13.657 3.035-5.937 4.552-12.733 4.552-20.386 0-7.653-1.517-14.383-4.552-20.188-3.035-5.938-7.257-10.556-12.667-13.855-5.41-3.299-11.678-4.948-18.803-4.948-7.126 0-13.393 1.649-18.803 4.948-5.41 3.299-9.633 7.917-12.668 13.855-3.035 5.806-4.552 12.535-4.552 20.188 0 7.653 1.517 14.449 4.552 20.386 3.035 5.806 7.258 10.359 12.668 13.657 5.41 3.299 11.677 4.949 18.803 4.949z" fill="#495CEF" />
        <path d="M316.124 143h-14.449v-15.636c-3.43 5.806-8.444 10.424-15.042 13.855-6.466 3.298-13.921 4.948-22.366 4.948-9.764 0-18.473-2.243-26.126-6.73-7.521-4.486-13.459-10.622-17.813-18.407-4.223-7.785-6.334-16.692-6.334-26.72 0-9.896 2.111-18.737 6.334-26.522 4.354-7.785 10.226-13.921 17.615-18.407 7.521-4.618 16.032-6.927 25.533-6.927 8.444 0 16.032 1.913 22.761 5.74 6.73 3.827 11.81 9.039 15.241 15.636V.493h14.646V143zm-86.692-48.69c0 7.521 1.518 14.251 4.552 20.189 3.167 5.805 7.456 10.424 12.866 13.854 5.542 3.299 11.875 4.949 19.001 4.949 8.313 0 15.702-2.112 22.167-6.334 6.466-4.354 10.952-10.028 13.46-17.022V97.279c0-8.313-1.518-15.57-4.553-21.772-3.035-6.334-7.323-11.282-12.865-14.845-5.41-3.563-11.678-5.344-18.803-5.344-6.993 0-13.195 1.715-18.605 5.146-5.41 3.299-9.633 7.917-12.668 13.855-3.034 5.806-4.552 12.47-4.552 19.991z" fill="#495CEF" />
        <path d="M425.343 143h-14.449v-15.834c-3.299 5.806-8.115 10.424-14.449 13.855-6.201 3.43-13.261 5.146-21.178 5.146-11.744 0-21.178-3.497-28.303-10.49-6.994-6.994-10.491-17.088-10.491-30.283V45.62h14.647v58.191c0 9.632 2.309 16.955 6.927 21.969 4.751 5.015 11.348 7.522 19.793 7.522 7.389 0 14.053-2.046 19.991-6.136 6.07-4.223 10.358-9.896 12.865-17.022V45.62h14.647V143z" fill="#495CEF" />
        <path d="M452.861 143h-17.22l38.398-50.471-34.835-46.909h17.021l27.314 38.398 27.314-38.398h16.824L493.04 92.529 531.438 143H514.02l-30.481-41.367L452.861 143z" fill="#495CEF"/>
    </g>
</svg>
